<svg xmlns="http://www.w3.org/2000/svg" viewBox="0 0 640 360" role="img" aria-label="Property module image">
  <defs>
    <linearGradient id="bg" x1="0" y1="0" x2="1" y2="1">
      <stop offset="0" stop-color="#ebf8ed"/>
      <stop offset="1" stop-color="#f9f2dd"/>
    </linearGradient>
  </defs>
  <rect width="640" height="360" rx="28" fill="url(#bg)"/>
  <rect x="72" y="230" width="496" height="78" rx="14" fill="#cde1cf"/>
  <rect x="134" y="128" width="372" height="166" rx="18" fill="#2f8f46"/>
  <polygon points="320,74 102,170 134,170 320,90 506,170 538,170" fill="#25743a"/>
  <rect x="300" y="204" width="40" height="90" rx="7" fill="#f2f7f2"/>
  <rect x="180" y="166" width="54" height="40" rx="6" fill="#f2f7f2"/>
  <rect x="248" y="166" width="54" height="40" rx="6" fill="#f2f7f2"/>
  <rect x="338" y="166" width="54" height="40" rx="6" fill="#f2f7f2"/>
  <rect x="406" y="166" width="54" height="40" rx="6" fill="#f2f7f2"/>
  <rect x="466" y="104" width="88" height="14" rx="7" fill="#d9a515"/>
  <text x="50" y="64" font-family="Segoe UI, Arial, sans-serif" font-size="30" font-weight="700" fill="#1d5e2f">Property Management</text>
</svg>
